<?xml version="1.0" encoding="utf-8"?>
<!-- Generator: Adobe Illustrator 22.0.1, SVG Export Plug-In . SVG Version: 6.00 Build 0)  -->
<svg version="1.1" id="Calque_1" xmlns="http://www.w3.org/2000/svg" xmlns:xlink="http://www.w3.org/1999/xlink" x="0px" y="0px"
	 viewBox="0 0 200 200" style="enable-background:new 0 0 200 200;" xml:space="preserve" width="36" height="36">
<title>Picto-100x100px</title>
<g>
	<path d="M171.1,63.3c-4.8-6.7-12.6-10.6-20.8-10.4h-28.8v-8.2c0-8.1-6.5-14.6-14.6-14.6H15.5C7.4,30,0.9,36.5,0.9,44.6V136
		c0,8.1,6.5,14.6,14.6,14.6h23.3c1.8,12.3,13.2,20.9,25.5,19.2c10-1.4,17.8-9.2,19.2-19.2h51.2c1.8,12.3,13.2,20.9,25.5,19.2
		c10-1.4,17.8-9.2,19.2-19.2h5c8.1,0,14.6-6.6,14.6-14.6v-27.9c0-4.8-1.5-9.6-4.5-13.4L171.1,63.3z M61.2,163.6
		c-9,0-16.2-7.3-16.2-16.2c0-9,7.3-16.2,16.2-16.2c9,0,16.2,7.3,16.2,16.2c0,0,0,0,0,0C77.4,156.3,70.1,163.6,61.2,163.6z
		 M115.1,62.4v81.8H83.5C81.8,131.9,70.4,123.3,58,125c-10,1.4-17.8,9.2-19.2,19.2H15.5c-4.5,0-8.2-3.7-8.2-8.2V44.6
		c0-4.5,3.7-8.2,8.2-8.2h91.4c4.5,0,8.2,3.7,8.2,8.2V62.4z M150.2,59.2c6.2-0.1,12.1,2.8,15.7,7.9l23.6,31.4h-68.1V59.2L150.2,59.2z
		 M157.1,163.6c-9,0-16.2-7.3-16.2-16.2c0-9,7.3-16.2,16.2-16.2c9,0,16.2,7.3,16.2,16.2c0,0,0,0,0,0
		C173.3,156.3,166,163.6,157.1,163.6z M192.7,136c0,4.5-3.7,8.2-8.2,8.2h-5c-1.8-12.3-13.2-20.9-25.5-19.2
		c-10,1.4-17.8,9.2-19.2,19.2h-13.3v-39.3h70.9c0.2,1.1,0.3,2.1,0.3,3.2L192.7,136L192.7,136z"/>
	<path d="M103.4,98.8c-0.3-1.4-1.7-2.3-3.1-2c0,0,0,0,0,0l-7.4,1.6c9.5-17.5,3-39.3-14.5-48.8s-39.3-3-48.8,14.5s-3,39.3,14.5,48.8
		c8.6,4.7,18.7,5.6,28.1,2.7c1.5-0.5,2.3-2.2,1.8-3.7c0-0.1-0.1-0.2-0.1-0.2c-0.7-1.6-2.5-2.3-4.1-1.8c-16,4.9-33-4.1-37.9-20.2
		s4.1-33,20.2-37.9s33,4.1,37.9,20.2c2.4,7.8,1.5,16.3-2.4,23.5L86.4,87c-0.2-1.4-1.5-2.4-3-2.2l0,0c-1.4,0.2-2.5,1.5-2.3,3
		l2.1,15.4c0.2,1.3,1.4,2.3,2.7,2.1c0.1,0,0.2,0,0.2,0l15.2-3.2C102.8,101.7,103.7,100.3,103.4,98.8
		C103.4,98.8,103.4,98.8,103.4,98.8L103.4,98.8L103.4,98.8z"/>
	<path d="M74.9,63L61.2,76.7L50.5,66.1c-1.2-1.2-3.1-1.3-4.4-0.1c-1.2,1.2-1.3,3.1-0.1,4.4c0,0,0,0,0.1,0.1L59,83.3
		c1.2,1.2,3.2,1.2,4.4,0c0,0,0,0,0,0l15.9-15.9c1.2-1.2,1.2-3.2,0-4.4C78.1,61.8,76.1,61.8,74.9,63L74.9,63z"/>
</g>
</svg>
