<svg xmlns="http://www.w3.org/2000/svg" viewBox="0 0 100 100" height="20" width="20">
  <title>Picto-100x100px</title>
  <path d="M85.352,8.313h-70.7A14.665,14.665,0,0,0,0,22.961V77.039A14.665,14.665,0,0,0,14.648,91.687h70.7A14.665,14.665,0,0,0,100,77.039V22.961A14.665,14.665,0,0,0,85.352,8.313Zm0,77.515h-70.7a8.8,8.8,0,0,1-8.789-8.789V23.619L48.426,50.726a2.928,2.928,0,0,0,3.148,0L94.141,23.619v53.42A8.8,8.8,0,0,1,85.352,85.828ZM92.531,17.9a2.922,2.922,0,0,0-.919.382L50,44.782,8.388,18.283a2.922,2.922,0,0,0-.919-.382,8.783,8.783,0,0,1,7.179-3.729h70.7A8.782,8.782,0,0,1,92.531,17.9Z"/>
</svg>
