<svg id="Calque_1" data-name="Calque 1" xmlns="http://www.w3.org/2000/svg" viewBox="0 0 636.2 95.07"><defs><style>.cls-1{fill:#fff;}.cls-2{fill:#0382c4;}.cls-3{fill:#1d1d1b;}</style></defs><rect class="cls-1" x="2.07" y="1.22" width="371.65" height="92.92"/><polygon class="cls-2" points="151.41 54.9 151.41 43.61 145.08 54.9 151.41 54.9"/><path class="cls-2" d="M54.23,33.57H49.35V61.8h4.94c9.39,0,13.82-4.36,13.82-14.19C68.11,38.62,63.27,33.57,54.23,33.57Z" transform="translate(-12.23 0.13)"/><path class="cls-2" d="M296.25,34.27A13.12,13.12,0,0,0,282.91,47.4c0,7.87,6.27,13.9,13.19,13.9,7.21,0,13.06-5.77,13.06-13.9A13,13,0,0,0,296.25,34.27Z" transform="translate(-12.23 0.13)"/><path class="cls-2" d="M12.23.67V94.44h375V.67Zm95.07,33H92.06v8.11h13.21V52.46H92.06v9.27H107.3V72.45H80V52.63a23.87,23.87,0,0,1-6.93,13.94C67.69,71.76,63,72.74,55.92,72.74H37.08V22.83H54.23c8,0,13.54,1.06,18.76,6,3.81,3.56,6.16,8.41,7,14.35V22.62H107.3Zm68.13,38.83H163.64V65.21H152.15A30.16,30.16,0,0,1,147.83,69a25.65,25.65,0,0,1-33.93-4.07,26.4,26.4,0,0,1-6.6-17.68c.18-6.3,1.62-10.58,5.16-15.35,5.81-7.47,13.27-10.59,20.72-10.44,7.71.29,13.2,3,16.95,6.38a21,21,0,0,1,3.16,2.89l-6.59,11.6a16,16,0,0,0-3.19-3.48c.08,0-4.45-4.81-10.62-4.92-7.28.11-12.72,6-12.95,13.32s6,14.26,13.24,13.91a14.51,14.51,0,0,0,11.2-6.66L162.5,22.62h12.93Zm33.42-38h-9.53V72.74H187.05V34.41h-9.3V22.83h31.1ZM248.2,72.74H235.85V53.65H223.29V72.74H211V22.83h12.27v19h12.56v-19H248.2Zm114.19,0H351.6l-18.71-27.8v27.8H320.6v-17a24.92,24.92,0,0,1-6,10.14,25.55,25.55,0,0,1-18.49,7.8,25,25,0,0,1-17-6.19v5.27H252.63V22.83h12.2V61.72h9.39a26.68,26.68,0,0,1-4-14.46,24.86,24.86,0,0,1,7.64-18,26,26,0,0,1,42.7,10.47V22.83h11.09l18.42,27.73V22.83h12.28Z" transform="translate(-12.23 0.13)"/><path class="cls-3" d="M405.9,66.17V.63h32.9A31.65,31.65,0,0,1,462,10.21a31.6,31.6,0,0,1,9.7,23.25A30.94,30.94,0,0,1,462,56.58a31.88,31.88,0,0,1-23.24,9.59H424.73V94.3H405.9Zm32.9-46.89H424.73V47.52l14.07.06a14.15,14.15,0,0,0,0-28.3Z" transform="translate(-12.23 0.13)"/><path class="cls-3" d="M479.89.63h30.57c10.43,0,18.86,3.94,24.52,9.53S544,21.06,544,31.42v2.45a30.28,30.28,0,0,1-5.92,17.83c-3.29,4.61-5.9,6.57-11.22,8.66L548.69,94.3h-23l-26.9-41.43V94.3H480ZM524.64,32a12.64,12.64,0,0,0-3.72-9c-2.45-2.38-7.08-3.72-11.62-3.72H498.72V45.14H506v0h6.28C519.12,45.19,524.64,39.15,524.64,32Z" transform="translate(-12.23 0.13)"/><path class="cls-3" d="M634.42,13.87a45.92,45.92,0,0,1,14,33.65,45.6,45.6,0,0,1-14,33.59,47.69,47.69,0,0,1-67.17,0,45.79,45.79,0,0,1-14-33.59,46.1,46.1,0,0,1,14-33.65,47.28,47.28,0,0,1,67.17,0ZM580.67,27.24A27.74,27.74,0,0,0,572.3,47.4a27.49,27.49,0,0,0,8.37,20.17,28.55,28.55,0,0,0,40.27,0,27.25,27.25,0,0,0,8.42-20.17,27.5,27.5,0,0,0-8.42-20.16,28.4,28.4,0,0,0-40.27,0Z" transform="translate(-12.23 0.13)"/></svg>