<?xml version="1.0" encoding="UTF-8"?>
<svg width="80px" height="80px" viewBox="0 0 80 80" version="1.1" xmlns="http://www.w3.org/2000/svg" xmlns:xlink="http://www.w3.org/1999/xlink">
    <!-- Generator: Sketch 53 (72520) - https://sketchapp.com -->
    <title>01-ATOMS/ICONS/Standard/help-blue</title>
    <desc>Created with Sketch.</desc>
    <g id="01-ATOMS/ICONS/Standard/help-blue" stroke="none" stroke-width="1" fill="none" fill-rule="evenodd">
        <path d="M14.2287371,65.7593013 L5.39909977,67.2092397 C3.61882371,67.5015835 2,66.1360167 2,64.341912 L2,14.4259458 C2,13.003661 3.0352872,11.7903447 4.44661305,11.5586105 L74.600947,0.0395413214 C76.3812089,-0.252770767 78,1.11279104 78,2.90687665 L78,52.8228429 C78,54.2451322 76.9647063,55.4584511 75.5533749,55.6901802 L37.8273354,61.8844886 L19.1453517,79.2131275 C17.276841,80.946281 14.2287371,79.6288331 14.2287371,77.0880741 L14.2287371,65.7593013 Z M72,6 L8,16.5476561 L8,60.5242385 L16.787257,59.0758899 C18.5589881,58.7838666 20.1700418,60.1479362 20.1700418,61.9400738 L20.1700418,70 L34.5122077,56.6472932 C34.9314213,56.257001 35.4568517,55.9990432 36.0224972,55.9058232 L72,49.9766283 L72,6 Z M39.5222586,43 C41.3987281,43 43,44.5905436 43,46.5 C43,48.3638974 41.3987281,50 39.5222586,50 C37.5095394,50 36,48.3638974 36,46.5 C36,44.5905436 37.5095394,43 39.5222586,43 Z M36.2571331,41 C36.2708943,39.0393079 36.554375,37.584735 37.1048228,36.6335082 C37.6552706,35.6822813 38.7093781,34.5369265 40.2685216,33.1960572 C41.0694231,32.4001326 42.8859009,28.4926147 42.8859009,27.2488093 C42.8859009,25.9176463 42.6175576,24.8610358 42.080871,24.0789775 C41.5455605,23.2983059 40.7831903,22.9072768 39.7965126,22.9072768 C39.0382707,22.9072768 38.3804856,23.245614 37.8231572,23.9236752 C37.2644526,24.6017363 36.9782198,25.5668294 36.9658347,26.8189546 L31.0443924,26.8189546 L31.0017327,26.6899982 C30.9576968,23.8515705 31.7530939,21.6939772 33.3824194,20.2158317 C35.0131211,18.7390728 37.1502347,18 39.7965126,18 C42.656089,18 44.9060444,18.8333635 46.5436266,20.4973172 C48.1812089,22.1612709 49,24.4131549 49,27.2515826 C49,29.0541991 48.5417522,30.720926 47.6266327,32.2559233 C46.7115132,33.7909206 45.5679579,35.0777115 44.1945906,36.1149093 C43.4652472,36.7777175 42.9753487,37.4585519 42.7248949,38.1574124 C42.4758173,38.856273 42.3492143,39.80334 42.3492143,41 L36.2571331,41 Z" id="Shape" fill="#0082C3"></path>
    </g>
</svg>