<?xml version="1.0" encoding="UTF-8"?>
<svg width="80px" height="80px" viewBox="0 0 80 80" version="1.1" xmlns="http://www.w3.org/2000/svg" xmlns:xlink="http://www.w3.org/1999/xlink">
    <!-- Generator: Sketch 52.5 (67469) - http://www.bohemiancoding.com/sketch -->
    <title>01-ATOMS/ICONS/Services/exchange_return</title>
    <desc>Created with Sketch.</desc>
    <g id="01-ATOMS/ICONS/Services/exchange_return" stroke="none" stroke-width="1" fill="none" fill-rule="evenodd">
        <path d="M52,8 L52,20 L61,14 L52,8 Z M46.0909091,17.729384 L11.7272727,25.037008 L11.7272727,51.1581462 C11.7272727,52.7276587 10.4451791,54 8.86363636,54 C7.28209367,54 6,52.7276587 6,51.1581462 L6,22.7396085 C6,21.3995671 6.94328219,20.2416147 8.26362125,19.960837 L46.0909091,11.9166477 L46.0909091,2.84663212 C46.0909091,0.576856625 48.639962,-0.776978061 50.5430051,0.482066849 L67.7248233,11.8494819 C69.4250589,12.9743503 69.4250589,15.4537441 67.7248233,16.5786125 L50.5430051,27.9460276 C48.639962,29.2050725 46.0909091,27.8512378 46.0909091,25.5814623 L46.0909091,17.729384 Z M34.9088755,62.2675328 L69.2727811,54.9604294 L69.2727811,28.8416023 C69.2727811,27.2722287 70.5548627,26 72.1363906,26 C73.7179184,26 75,27.2722287 75,28.8416023 L75,57.2576256 C75,58.5975484 74.0567267,59.7553984 72.7364,60.0361512 L34.9088755,68.0797547 L34.9088755,77.1536198 C34.9088755,79.4231944 32.3598465,80.7769093 30.4568213,79.5179758 L13.2751647,68.1515665 C11.5749451,67.0267977 11.5749451,64.5476233 13.2751647,63.4228544 L30.4568213,52.0564451 C32.3598465,50.7975116 34.9088755,52.1512265 34.9088755,54.4208012 L34.9088755,62.2675328 Z M29,60 L20,66 L29,72 L29,60 Z" id="Shape" fill="#0082C3"></path>
    </g>
</svg>