<svg xmlns="http://www.w3.org/2000/svg" viewBox="0 0 100 100" width="36" height="36">
  <title>Picto-100x100px</title>
  <path d="M42.98,66.609a3.949,3.949,0,0,1-2.8-1.145L28.92,54.208a3.95,3.95,0,0,1-.023-5.586l.023-.023a3.95,3.95,0,0,1,5.569,0l8.491,8.492L65.531,34.539A3.938,3.938,0,1,1,71.1,40.108L45.744,65.385A3.949,3.949,0,0,1,42.98,66.609Z"/>
  <path d="M62.441,98.008a20.966,20.966,0,0,1-7.5-1.856A16.841,16.841,0,0,0,50,94.769a16.841,16.841,0,0,0-4.937,1.383,15.482,15.482,0,0,1-10.505,1.382,15.8,15.8,0,0,1-7.9-7.464,15.809,15.809,0,0,0-3-3.95,17.553,17.553,0,0,0-4.621-1.7,15.518,15.518,0,0,1-9.478-5.134A15.8,15.8,0,0,1,7.583,68.743a15.806,15.806,0,0,0,0-5.016,16.63,16.63,0,0,0-2.646-3.95A16.113,16.113,0,0,1,0,49.983,16.116,16.116,0,0,1,4.739,40.07a15.757,15.757,0,0,0,2.646-3.95,15.463,15.463,0,0,0,0-5.016A15.8,15.8,0,0,1,9.36,20.6a15.52,15.52,0,0,1,9.479-5.134,17.533,17.533,0,0,0,4.621-1.7,15.8,15.8,0,0,0,3-3.949,15.8,15.8,0,0,1,7.9-7.465A15.486,15.486,0,0,1,44.866,3.735,16.832,16.832,0,0,0,50,5.2a16.839,16.839,0,0,0,4.937-1.382,15.483,15.483,0,0,1,10.5-1.225,15.8,15.8,0,0,1,7.9,7.465,15.822,15.822,0,0,0,3,3.949,17.52,17.52,0,0,0,4.621,1.7,15.518,15.518,0,0,1,9.478,5.134,15.8,15.8,0,0,1,1.975,10.545,15.789,15.789,0,0,0,.2,5.016,16.614,16.614,0,0,0,2.646,3.949A16.112,16.112,0,0,1,100,49.983,16.119,16.119,0,0,1,95.261,59.9a15.752,15.752,0,0,0-2.646,3.949,15.475,15.475,0,0,0-.2,5.016,15.8,15.8,0,0,1-1.975,10.506A15.518,15.518,0,0,1,80.964,84.5a17.553,17.553,0,0,0-4.621,1.7,15.809,15.809,0,0,0-3,3.95,15.8,15.8,0,0,1-7.9,7.464A8.84,8.84,0,0,1,62.441,98.008ZM50,86.871a22.51,22.51,0,0,1,7.9,1.9,11.2,11.2,0,0,0,5.292,1.264c1.145-.395,2.488-2.449,3.673-4.265a20.409,20.409,0,0,1,4.976-5.924,21.543,21.543,0,0,1,7.228-2.963A11.211,11.211,0,0,0,84.2,74.746a10.827,10.827,0,0,0,.474-5.49,21.338,21.338,0,0,1,.593-7.9,20.331,20.331,0,0,1,3.949-6.477c1.461-1.817,2.962-3.633,2.962-4.937s-1.5-3.12-2.962-4.937a20.32,20.32,0,0,1-3.949-6.477,21.338,21.338,0,0,1-.593-7.9,10.812,10.812,0,0,0-.474-5.489,11.213,11.213,0,0,0-5.134-2.133,21.52,21.52,0,0,1-7.228-2.962,20.422,20.422,0,0,1-4.976-5.924c-1.185-1.817-2.528-3.95-3.673-4.266A11.211,11.211,0,0,0,57.9,11.2,22.511,22.511,0,0,1,50,13.1a22.511,22.511,0,0,1-7.9-1.9,11.225,11.225,0,0,0-5.292-1.264c-1.145.395-2.488,2.449-3.673,4.266a20.422,20.422,0,0,1-4.976,5.924,21.52,21.52,0,0,1-7.228,2.962A11.213,11.213,0,0,0,15.8,25.22a10.812,10.812,0,0,0-.474,5.489,21.338,21.338,0,0,1-.593,7.9,20.32,20.32,0,0,1-3.949,6.477C9.321,46.9,7.82,48.719,7.82,50.022s1.5,3.12,2.962,4.937a20.331,20.331,0,0,1,3.949,6.477,21.338,21.338,0,0,1,.593,7.9,10.816,10.816,0,0,0,.474,5.49,11.211,11.211,0,0,0,5.134,2.132A21.543,21.543,0,0,1,28.16,79.92a20.409,20.409,0,0,1,4.976,5.924c1.185,1.816,2.528,3.949,3.673,4.265A11.211,11.211,0,0,0,42.1,88.766,22.51,22.51,0,0,1,50,86.871Z"/>
</svg>
