<?xml version="1.0" encoding="utf-8"?>
<!-- Generator: Adobe Illustrator 22.0.1, SVG Export Plug-In . SVG Version: 6.00 Build 0)  -->
<svg version="1.1" id="Calque_1" xmlns="http://www.w3.org/2000/svg" xmlns:xlink="http://www.w3.org/1999/xlink" x="0px" y="0px"
	 viewBox="0 0 200 200" style="enable-background:new 0 0 200 200;" xml:space="preserve" height="36" width="36">
<title>Picto-100x100px</title>
<path d="M31.4,0c-2.3,0.3-4.1,2.2-4.1,4.5v190.9c0.1,2.5,2.1,4.5,4.5,4.5h136.4c2.5-0.1,4.5-2.1,4.5-4.5V47.7c0-1.2-0.5-2.4-1.4-3.3
	L128.2,1.3c-0.9-0.8-2-1.3-3.2-1.3H31.4z M36.4,9.1h84.1v38.6c0.1,2.5,2.1,4.5,4.5,4.5h38.6v138.6H36.4L36.4,9.1z M129.6,15.5
	l27.7,27.7h-27.7L129.6,15.5z M56.4,90.9c-2.5,0.1-4.4,2.3-4.3,4.8c0.1,2.5,2.2,4.4,4.7,4.3h86.4c2.5,0,4.5-2,4.5-4.5
	c0-2.5-2-4.5-4.5-4.5L56.4,90.9L56.4,90.9z M56.4,115.9c-2.5,0.1-4.5,2.2-4.3,4.7s2.2,4.5,4.7,4.3c0,0,0,0,0,0h86.4
	c2.5,0.1,4.6-1.9,4.6-4.4c0.1-2.5-1.9-4.6-4.4-4.6c-0.1,0-0.1,0-0.2,0H56.4z M56.4,140.9c-2.5,0.1-4.5,2.2-4.4,4.7s2.2,4.5,4.7,4.4
	c0,0,0.1,0,0.1,0h86.4c2.5,0.1,4.6-1.9,4.6-4.4c0.1-2.5-1.9-4.6-4.4-4.6c-0.1,0-0.1,0-0.2,0H56.4z M56.4,165.9
	c-2.5,0.1-4.5,2.2-4.3,4.7s2.2,4.5,4.7,4.3c0,0,0,0,0,0h86.4c2.5,0.1,4.6-1.9,4.6-4.4c0.1-2.5-1.9-4.6-4.4-4.6c-0.1,0-0.1,0-0.2,0
	H56.4z"/>
</svg>
