<svg xmlns="http://www.w3.org/2000/svg" viewBox="0 0 100 100" height="20" width="20">
  <title>Picto-100x100px</title>
  <g>
    <path d="M49.968,46.382q22.713,0,45.426-.011A3.609,3.609,0,0,1,99.049,48.7a3.984,3.984,0,0,1-.269,2.991c-.5,1.494-1.022,2.978-1.546,4.463-.614,1.738-1.25,3.468-1.858,5.208-.6,1.716-1.166,3.443-1.764,5.159-.739,2.117-1.51,4.224-2.24,6.344-.6,1.749-1.147,3.518-1.753,5.266-.71,2.045-1.475,4.07-2.185,6.115-.613,1.767-1.173,3.552-1.774,5.324-.479,1.414-1.036,2.79-2.666,3.248a5.133,5.133,0,0,1-1.368.151q-16.518.01-33.037.006c-10.1,0-20.208-.025-30.312.023a3.988,3.988,0,0,1-3.672-2.881c-.519-1.765-1.242-3.469-1.851-5.209-.6-1.717-1.159-3.449-1.757-5.168-.729-2.091-1.491-4.172-2.218-6.264-.6-1.719-1.152-3.452-1.752-5.17-.607-1.74-1.259-3.465-1.868-5.205C4.558,61.387,4,59.656,3.4,57.939,2.67,55.846,1.92,53.761,1.18,51.672.5,49.761.429,48.283,2.355,47a3.752,3.752,0,0,1,1.94-.59c5.34-.046,10.681-.027,16.022-.027ZM90.755,53.3H9.258c.2.669.34,1.259.54,1.83.718,2.04,1.468,4.068,2.179,6.11.609,1.745,1.168,3.507,1.775,5.253s1.258,3.465,1.863,5.206,1.169,3.5,1.77,5.239c.844,2.449,1.749,4.877,2.544,7.342.587,1.82.527,1.839,2.493,1.839h55.66a2.047,2.047,0,0,0,.736-.017c.312-.132.724-.316.835-.584.409-.986.713-2.015,1.053-3.03.586-1.752,1.152-3.512,1.759-5.258s1.268-3.461,1.872-5.2c.612-1.766,1.165-3.553,1.776-5.32.6-1.743,1.252-3.47,1.869-5.208q.951-2.682,1.875-5.373C90.166,55.223,90.436,54.308,90.755,53.3Z"/>
    <path d="M49.155,7c6.966.184,12.441,2,17.195,5.939a22.907,22.907,0,0,1,7.129,9.807,31.442,31.442,0,0,1,1.3,4.7,34.459,34.459,0,0,1,.362,3.907,3.219,3.219,0,0,1-2.365,3.407,3.581,3.581,0,0,1-3.94-1.381,3.68,3.68,0,0,1-.626-1.533c-.188-1.321-.175-2.673-.4-3.985a14.892,14.892,0,0,0-2-5.144,18.351,18.351,0,0,0-9.13-7.663,17.938,17.938,0,0,0-7.779-1.1c-6.958.411-12.008,3.84-15.3,9.868A18.571,18.571,0,0,0,32.147,28.4a20.409,20.409,0,0,0-.339,3.243,3.531,3.531,0,0,1-2.756,3.15c-2.229.325-3.612-.525-4.05-2.188a12.948,12.948,0,0,1-.018-4.509,23.881,23.881,0,0,1,.86-3.522,21.826,21.826,0,0,1,4.077-7.891A24.571,24.571,0,0,1,38.813,9.6,20.308,20.308,0,0,1,44.5,7.7C46.33,7.42,48.158,7.15,49.155,7Z"/>
  </g>
</svg>
