<?xml version="1.0" encoding="UTF-8"?>
<svg width="80px" height="80px" viewBox="0 0 80 80" version="1.1" xmlns="http://www.w3.org/2000/svg" xmlns:xlink="http://www.w3.org/1999/xlink">
    <!-- Generator: Sketch 52.5 (67469) - http://www.bohemiancoding.com/sketch -->
    <title>01-ATOMS/ICONS/Payment/secured_payment</title>
    <desc>Created with Sketch.</desc>
    <g id="01-ATOMS/ICONS/Payment/secured_payment" stroke="none" stroke-width="1" fill="none" fill-rule="evenodd">
        <path d="M6,26 L75,12.9429672 L75,6 L6,19.0570328 L6,26 Z M74.2857143,22.0569805 L5.71428571,35.2435083 L5.71428571,73.7187045 L33.774613,68.6169373 C35.3271169,68.3346699 36.8144977,69.3643729 37.0967712,70.9168431 C37.3790446,72.4693134 36.3493194,73.956662 34.7968155,74.2389294 L3.36824411,79.9530914 C1.61441433,80.2719627 0,78.9246398 0,77.1420954 L0,17.1433938 C0,15.7735162 0.972321109,14.5964196 2.31757888,14.3377218 L76.6032932,0.0523166503 C78.3653688,-0.286536713 80,1.06366489 80,2.85798864 L80,40.000042 C80,41.5779643 78.7208136,42.857123 77.1428571,42.857123 C75.5649007,42.857123 74.2857143,41.5779643 74.2857143,40.000042 L74.2857143,22.0569805 Z M45.6666363,51.2307692 C45.6666667,39.8426795 48.5,37 57,37 C65.5,37 68.3333333,39.8461538 68.3333488,51.2307692 L71.1666667,51.2307692 C72.7314735,51.2307692 74,52.5050357 74,54.0769231 L74,71.1538462 C74,72.7257335 72.7314735,74 71.1666667,74 L42.8333333,74 C41.2685265,74 40,72.7257335 40,71.1538462 L40,54.0769231 C40,52.5050357 41.2685265,51.2307692 42.8333333,51.2307692 L45.6666363,51.2307692 Z M46,57 L46,68 L69,68 L69,57 L46,57 Z M52,52 C52,52 63,52 63,52 C62.9999895,46 63.0068712,43 57.5000178,43 C51.9931644,43 52.0000461,46 52,52 Z" id="Shape" fill="#0082C3"></path>
    </g>
</svg>