<svg xmlns="http://www.w3.org/2000/svg" viewBox="0 0 100 100" height="20" width="20">
  <title>Picto-100x100px</title>
  <path d="M80.372,100A42.931,42.931,0,0,1,65.66,96.872c-12.115-4.567-25.3-13.595-37.116-25.415S7.693,46.45,3.122,34.334C-1.032,23.319-1.042,14.278,3.1,10.141c.595-.6,1.2-1.235,1.826-1.894C8.7,4.275,12.971-.195,18.628.006c3.9.162,7.676,2.584,11.544,7.4,11.429,14.214,6.276,19.279.312,25.152L29.432,33.6c-.976.975-2.819,5.492,14.328,22.64A95.147,95.147,0,0,0,57.944,68.41c2.4,1.561,6.7,3.922,8.459,2.16l1.06-1.07c5.866-5.95,10.931-11.086,25.135.333,4.814,3.868,7.232,7.642,7.393,11.547.232,5.654-4.271,9.932-8.247,13.706-.656.626-1.3,1.231-1.89,1.823C87.8,98.968,84.512,100,80.372,100ZM18.224,3.363c-4.019,0-7.648,3.821-10.86,7.2-.646.68-1.272,1.339-1.887,1.955C2.392,15.6,2.705,23.7,6.27,33.15c4.407,11.679,13.162,24.44,24.655,35.933S55.169,89.324,66.851,93.727c9.455,3.572,17.551,3.875,20.628.8.616-.615,1.275-1.241,1.954-1.883,3.455-3.283,7.373-7,7.2-11.13-.118-2.835-2.183-5.886-6.139-9.065-11.836-9.518-15.146-6.158-20.635-.592l-1.076,1.087c-2.624,2.627-6.885,2.045-12.671-1.716A98.2,98.2,0,0,1,41.386,58.609C27.154,44.381,22.6,35.673,27.057,31.21l1.073-1.06c5.58-5.489,8.947-8.8-.575-20.645-3.185-3.952-6.233-6.017-9.068-6.139C18.4,3.363,18.312,3.363,18.224,3.363Z"/>
</svg>
