<?xml version="1.0" encoding="UTF-8"?>
<svg width="80px" height="80px" viewBox="0 0 80 80" version="1.1" xmlns="http://www.w3.org/2000/svg" xmlns:xlink="http://www.w3.org/1999/xlink">
    <!-- Generator: Sketch 53 (72520) - https://sketchapp.com -->
    <title>01-ATOMS/ICONS/Payment/devis</title>
    <desc>Created with Sketch.</desc>
    <defs>
        <path d="M73.3564937,51.2213619 L73.3564937,6.11588169 L7.6435063,16.9115552 L7.6435063,62.0156319 L16.8000953,60.5124901 C16.95247,60.4872272 17.1076664,60.4745958 17.260041,60.4745958 C17.9245639,60.4745958 18.5721563,60.7075757 19.0857153,61.1412553 C19.717788,61.6745829 20.0817942,62.4577324 20.0817942,63.2815832 L20.0817942,70.999395 L35.058249,57.9412897 C35.4547054,57.5960302 35.938636,57.3672608 36.4592495,57.2830511 L73.3564937,51.2213619 Z M78.0039211,0.667519187 C78.6359938,1.20084679 79,1.98259277 79,2.80784706 L79,53.6030907 C79,54.977111 78.0010994,56.1490282 76.6381926,56.3721837 L38.1734645,62.6907123 L19.1209872,79.3038671 C18.5961412,79.7614061 17.9316183,80 17.260041,80 C16.8649956,80 16.4685393,79.9171939 16.0960679,79.7501781 C15.0858802,79.2940427 14.4382879,78.2947552 14.4382879,77.1930126 L14.4382879,66.5910213 L5.28169892,68.094163 C4.4633905,68.2288984 3.62674069,67.9987255 2.99607886,67.4653979 C2.36400616,66.9320703 2,66.1489208 2,65.32507 L2,14.5298264 C2,13.155806 2.99890062,11.9838888 4.36180739,11.7607333 L75.7183011,0.0387540138 C76.530966,-0.0987883678 77.3718484,0.134191585 78.0039211,0.667519187 Z M32.5180416,45.8907003 C30.8129334,44.47188 29.5195981,42.6533126 28.7031272,40.5841997 L25,41.1838202 L25,36.5008686 L27.7324183,36.0588948 C27.6956276,35.3959341 27.6998726,34.7315658 27.7465686,34.06579 L25,34.5091714 L25,29.8262198 L28.8290647,29.2068934 C29.5988397,27.1645241 30.7492571,25.2164613 32.2477713,23.4837551 C38.3748408,16.3995064 48.4597425,14.884972 54.7297297,20.1098341 L51.7468516,23.6526623 C47.4140371,20.0436788 40.2469223,21.3203356 35.77119,26.4987483 C35.2731003,27.0716251 34.8316117,27.6768759 34.436819,28.3004249 L44.537286,26.6676555 L44.537286,31.3491995 L32.5095514,33.2944472 C32.3991793,33.9672608 32.3468233,34.641482 32.3524834,35.3114805 L44.537286,33.3408967 L44.537286,38.0238483 L33.4519598,39.8170796 C33.9641998,40.7826656 34.6476581,41.6370544 35.4995047,42.3464646 C39.8337343,45.9554481 46.999434,44.6801988 51.4765813,39.5017862 L55,42.5167793 C51.3336635,46.754942 46.2508844,49 41.4143201,49 C38.1696618,49 35.0353757,47.989372 32.5180416,45.8907003 Z" id="path-1"></path>
    </defs>
    <g id="01-ATOMS/ICONS/Payment/devis" stroke="none" stroke-width="1" fill="none" fill-rule="evenodd">
        <mask id="mask-2" fill="white">
            <use xlink:href="#path-1"></use>
        </mask>
        <use id="Combined-Shape" fill="#0082C3" xlink:href="#path-1"></use>
    </g>
</svg>